# xmcd
#
# Track frame offsets:
#	150
#	16130
#	31297
#	45677
#	61425
#	82522
#	99057
#	115072
#	133102
#	151990
#	168520
#
# Disc length: 2504 seconds
#
# Revision: 1
# Processed by: cddbd v1.4PL0 Copyright (c) Steve Scherf et al.
# Submitted via: dBpowerAMP V4.0
#
DISCID=7709c60b
DTITLE=Reba McEntire - So Good Together
DYEAR=1999
DGENRE=Country
TTITLE0=We're So Good Together
TTITLE1=Til I said it to you
TTITLE2=I like that way
TTITLE3=What do you Say
TTITLE4=Roses
TTITLE5=I'm Not Your Girl
TTITLE6=She Wasn't Good Enough for Him
TTITLE7=Nobody Dies from a Broken Heart
TTITLE8=Back Before the War
TTITLE9=When You're Not Trying To
TTITLE10=Where You End and I Begin
EXTD=
EXTT0=
EXTT1=
EXTT2=
EXTT3=
EXTT4=
EXTT5=
EXTT6=
EXTT7=
EXTT8=
EXTT9=
EXTT10=
PLAYORDER=
